<svg width="121" height="116" viewBox="0 0 121 116" fill="none" xmlns="http://www.w3.org/2000/svg">
<path d="M111.414 4.22291C112.48 3.2338 113.898 2.68698 115.369 2.69783C116.841 2.70869 118.25 3.27637 119.3 4.28108C120.35 5.2858 120.959 6.64897 120.998 8.08295C121.037 9.51693 120.503 10.9096 119.509 11.967L58.5429 79.1623C58.0239 79.7074 57.3975 80.1447 56.7011 80.4483C56.0048 80.7519 55.2528 80.9155 54.4901 80.9293C53.7274 80.9431 52.9697 80.8067 52.2623 80.5285C51.5549 80.2502 50.9123 79.8358 50.3729 79.3098L30.3564 59.7948C29.7989 59.2884 29.3518 58.6777 29.0417 57.9992C28.7316 57.3207 28.5649 56.5882 28.5514 55.8455C28.538 55.1028 28.6781 54.365 28.9635 53.6763C29.2488 52.9875 29.6736 52.3618 30.2123 51.8366C30.7511 51.3113 31.3928 50.8972 32.0993 50.619C32.8058 50.3408 33.5625 50.2042 34.3243 50.2173C35.0861 50.2304 35.8374 50.393 36.5333 50.6953C37.2293 50.9976 37.8557 51.4335 38.3751 51.977L53.5647 66.7674L111.271 4.38517C111.318 4.32838 111.368 4.27421 111.422 4.22291H111.414Z" fill="#4AAEE3"/>
<path d="M58.4607 106.558C85.4916 106.558 107.404 84.8179 107.404 58C107.404 50.6952 105.779 43.7671 102.867 37.5525C102.304 36.3522 102.626 34.9106 103.694 34.117L107.053 31.6202C108.37 30.6411 110.26 31.0367 110.984 32.503C114.787 40.1982 116.921 48.8518 116.921 58C116.921 90.0325 90.7476 116 58.4607 116C26.1737 116 0 90.0325 0 58C0 25.9675 26.1737 0 58.4607 0C71.8399 0 84.1695 4.45903 94.0218 11.9609C95.3991 13.0096 95.327 15.055 93.9374 16.0878L90.4838 18.6549C89.4961 19.389 88.1385 19.3646 87.1389 18.6464C79.0799 12.8557 69.1721 9.44186 58.4607 9.44186C31.4297 9.44186 9.51685 31.1821 9.51685 58C9.51685 84.8179 31.4297 106.558 58.4607 106.558Z" fill="#4AAEE3"/>
</svg>
